<svg width="804" height="147" viewBox="0 0 804 147" fill="none" xmlns="http://www.w3.org/2000/svg">
<path d="M60.2406 1.05029V31.6958H31.6957V115.232H60.2406V145.877H1.05017V1.05029H60.2406ZM174.339 1.05029V145.877H86.6029V1.05029H174.339ZM259.864 1.05029V29.5952H286.309V1.05029H316.954V29.5952H345.5V145.877H314.855V31.6958H288.41V145.877H257.764V31.6958H231.319V145.877H200.673V1.05029H259.864ZM459.822 1.05029V145.877H372.085V1.05029H459.822ZM545.346 1.05029V29.5952H573.892V117.332H545.346V145.877H486.156V1.05029H545.346ZM687.962 1.05029V145.877H600.226V1.05029H687.962ZM802.033 1.05029V60.2407H773.487V86.686H802.033V145.877H771.387V88.7866H744.942V145.877H714.296V1.05029H802.033ZM630.871 115.232H657.317V31.6958H630.871V115.232ZM516.801 115.232H543.246V31.6958H516.801V115.232ZM402.731 115.232H429.176V31.6958H402.731V115.232ZM117.248 115.232H143.694V31.6958H117.248V115.232ZM744.942 58.1411H771.387V31.6958H744.942V58.1411Z" fill="url(#paint0_linear_969_12)" fill-opacity="0.31" stroke="#22C4FF" stroke-width="2.1"/>
<defs>
<linearGradient id="paint0_linear_969_12" x1="415.758" y1="-15.6092" x2="415.758" y2="96.9482" gradientUnits="userSpaceOnUse">
<stop stop-color="#22A3FF"/>
<stop offset="1" stop-opacity="0"/>
</linearGradient>
</defs>
</svg>
